<svg width="28" height="25" viewBox="0 0 28 25" fill="none" xmlns="http://www.w3.org/2000/svg">
<g filter="url(#filter0_f_599_125)">
<path d="M15.3407 3.47546C15.3407 6.0997 13.3341 8.36044 12.1062 10.5434C10.8314 12.8097 10.0474 16.0249 8.18724 17.8851C7.6408 18.4315 7.50425 19.4312 6.95506 20.0414C6.46349 20.5876 5.70117 21.4266 5.50041 22.1292C5.44672 22.3172 5.04754 22.9229 5.2437 22.5742C5.6278 21.8914 6.25014 22.1067 6.78392 21.7185C7.36098 21.2988 8.32315 21.2577 8.87178 20.5719C9.62424 19.6313 12.5712 18.0901 13.8005 17.9535C15.8454 17.7263 18.3483 15.7922 20.1325 14.8731C21.4797 14.1791 23.3182 13.0999 24.7189 12.6997C26.1893 12.2796 23.373 12.1007 23.0418 12.1007C21.9776 12.1007 20.9558 11.7927 19.9614 11.7927C17.2546 11.7927 13.8606 10.7094 11.2677 9.87594C8.37577 8.94639 5.4438 8.06028 2.55687 7.17199C1.90908 6.97267 7.01738 8.93214 6.60258 8.41365C6.44445 8.21598 2.96536 7.2334 2.70321 7.21702C2.39091 7.1975 4.85301 9.5801 5.10258 9.71875C7.16847 10.8665 3.72271 8.58778 5.65443 9.97862C7.588 11.3708 9.87533 12.665 11.6442 14.257C12.7006 15.2078 14.1403 16.0562 15.3407 16.7898C16.3618 17.4138 17.1647 18.5655 18.25 19.1857C19.041 19.6377 19.9169 20.6814 20.5775 21.342C20.7989 21.5635 21.6152 21.9239 21.9294 21.9239C22.0591 21.9239 21.4037 20.9809 21.3476 20.88C19.2509 17.1059 18.7785 12.8796 17.7366 8.71221C17.2416 6.73226 17.1488 4.62722 16.2648 2.85938" stroke="#8ED600" stroke-width="2" stroke-linecap="round"/>
</g>
<defs>
<filter id="filter0_f_599_125" x="0.199512" y="0.559375" width="27.2423" height="24.4213" filterUnits="userSpaceOnUse" color-interpolation-filters="sRGB">
<feFlood flood-opacity="0" result="BackgroundImageFix"/>
<feBlend mode="normal" in="SourceGraphic" in2="BackgroundImageFix" result="shape"/>
<feGaussianBlur stdDeviation="0.65" result="effect1_foregroundBlur_599_125"/>
</filter>
</defs>
</svg>
