<svg width="19" height="20" viewBox="0 0 19 20" fill="none" xmlns="http://www.w3.org/2000/svg">
<path d="M11.1625 10L18.6438 2.51875C19.1188 2.04375 19.1188 1.33125 18.6438 0.85625C18.1688 0.38125 17.4562 0.38125 16.9812 0.85625L9.5 8.3375L2.01875 0.85625C1.54375 0.38125 0.83125 0.38125 0.35625 0.85625C-0.11875 1.33125 -0.11875 2.04375 0.35625 2.51875L7.8375 10L0.35625 17.4812C0.11875 17.7187 0 17.9562 0 18.3125C0 19.025 0.475 19.5 1.1875 19.5C1.54375 19.5 1.78125 19.3813 2.01875 19.1438L9.5 11.6625L16.9812 19.1438C17.2187 19.3813 17.4562 19.5 17.8125 19.5C18.1688 19.5 18.4063 19.3813 18.6438 19.1438C19.1188 18.6688 19.1188 17.9562 18.6438 17.4812L11.1625 10Z" fill="#EEE5DC"/>
</svg>
