<svg width="18" height="18" viewBox="0 0 18 18" fill="none" xmlns="http://www.w3.org/2000/svg">
<path d="M14.5529 0.410625L2.07759 4.9641C1.58597 5.14452 1.15115 5.46854 0.83242 5.892C0.513688 6.31546 0.326556 6.81775 0.296537 7.33037C0.266518 7.843 0.395073 8.34102 0.664674 8.75653C0.934275 9.17205 1.3318 9.48483 1.80306 9.65225L6.30127 11.2312C6.40786 11.2716 6.50378 11.3334 6.58344 11.4131C6.66311 11.4927 6.72492 11.5886 6.76527 11.6952L8.34426 16.1934C8.47904 16.5755 8.70986 16.9109 9.01571 17.169C9.32157 17.4272 9.69278 17.5999 10.0956 17.6716C10.4984 17.7433 10.9201 17.7116 11.3223 17.5795C11.7245 17.4473 12.0944 17.2189 12.3985 16.9149C12.6806 16.6275 12.8993 16.2851 13.0385 15.9128L17.592 3.43749C17.7526 2.99411 17.7898 2.5236 17.6994 2.07844C17.6091 1.63328 17.3946 1.23098 17.0801 0.916428C16.7655 0.601877 16.3632 0.387447 15.9181 0.29706C15.4729 0.206674 15.0024 0.243884 14.559 0.404543L14.5529 0.410625ZM16.0317 2.97197L11.4783 15.4473C11.4164 15.6091 11.3078 15.7516 11.167 15.8557C11.0263 15.9598 10.86 16.0206 10.6907 16.0299C10.5213 16.0392 10.3568 15.9966 10.2194 15.9077C10.0819 15.8188 9.97803 15.688 9.92163 15.5327L8.33656 11.0406C8.3148 10.9812 8.28948 10.9234 8.26072 10.8675L12.451 6.67717C12.6123 6.51587 12.7074 6.30156 12.7153 6.08139C12.7233 5.86122 12.6434 5.65322 12.4934 5.50315C12.3433 5.35308 12.1353 5.27323 11.9151 5.28116C11.6949 5.2891 11.4806 5.38418 11.3193 5.54547L7.12903 9.73578C7.07309 9.70702 7.01528 9.6817 6.95589 9.65994L2.46376 8.07487C2.30849 8.01847 2.17766 7.91457 2.0888 7.77712C1.99994 7.63966 1.9573 7.47522 1.96659 7.30584C1.97589 7.13646 2.03668 6.97024 2.14081 6.82946C2.24494 6.68869 2.38743 6.5801 2.54919 6.51824L15.0245 1.96477C15.1716 1.91263 15.3274 1.90117 15.4746 1.93165C15.6218 1.96213 15.7549 2.03336 15.859 2.1375C15.9631 2.24164 16.0344 2.37466 16.0649 2.52189C16.0953 2.66913 16.0839 2.82487 16.0317 2.97197Z" fill="#F9F9F9"/>
</svg>
