<svg width="20" height="20" viewBox="0 0 20 20" fill="none" xmlns="http://www.w3.org/2000/svg">
<path d="M10 0C4.48589 0 0 4.48589 0 10C0 15.5141 4.48589 20 10 20C15.5141 20 20 15.5141 20 10C20 4.48588 15.5141 0 10 0ZM10 18.0645C5.55317 18.0645 1.93548 14.4468 1.93548 10C1.93548 5.55317 5.55317 1.93548 10 1.93548C14.4468 1.93548 18.0645 5.55317 18.0645 10C18.0645 14.4468 14.4468 18.0645 10 18.0645Z" fill="black"/>
<path d="M9.99997 7.8113C9.46538 7.8113 9.03223 8.24477 9.03223 8.77904V14.9484C9.03223 15.4827 9.46538 15.9161 9.99997 15.9161C10.5346 15.9161 10.9677 15.4827 10.9677 14.9484V8.77904C10.9677 8.24477 10.5346 7.8113 9.99997 7.8113ZM9.99997 4.08398C9.46538 4.08398 9.03223 4.51746 9.03223 5.05173V5.92748C9.03223 6.46176 9.46538 6.89522 9.99997 6.89522C10.5346 6.89522 10.9677 6.46175 10.9677 5.92748V5.05173C10.9677 4.51745 10.5346 4.08398 9.99997 4.08398Z" fill="black"/>
</svg>
