<svg width="39" height="39" viewBox="0 0 39 39" fill="none" xmlns="http://www.w3.org/2000/svg">
<path d="M1.95 5.46667H37.05C37.5672 5.46667 38.0632 5.17869 38.4289 4.66609C38.7946 4.15349 39 3.45826 39 2.73333C39 2.00841 38.7946 1.31317 38.4289 0.800575C38.0632 0.287976 37.5672 0 37.05 0H1.95C1.43283 0 0.936838 0.287976 0.571142 0.800575C0.205446 1.31317 0 2.00841 0 2.73333C0 3.45826 0.205446 4.15349 0.571142 4.66609C0.936838 5.17869 1.43283 5.46667 1.95 5.46667ZM37.05 16.4H1.95C1.43283 16.4 0.936838 16.688 0.571142 17.2006C0.205446 17.7132 0 18.4084 0 19.1333C0 19.8583 0.205446 20.5535 0.571142 21.0661C0.936838 21.5787 1.43283 21.8667 1.95 21.8667H37.05C37.5672 21.8667 38.0632 21.5787 38.4289 21.0661C38.7946 20.5535 39 19.8583 39 19.1333C39 18.4084 38.7946 17.7132 38.4289 17.2006C38.0632 16.688 37.5672 16.4 37.05 16.4ZM37.05 32.8H1.95C1.43283 32.8 0.936838 33.088 0.571142 33.6006C0.205446 34.1132 0 34.8084 0 35.5333C0 36.2583 0.205446 36.9535 0.571142 37.4661C0.936838 37.9787 1.43283 38.2667 1.95 38.2667H37.05C37.5672 38.2667 38.0632 37.9787 38.4289 37.4661C38.7946 36.9535 39 36.2583 39 35.5333C39 34.8084 38.7946 34.1132 38.4289 33.6006C38.0632 33.088 37.5672 32.8 37.05 32.8Z" fill="#212121"/>
</svg>
