<svg width="20" height="16" viewBox="0 0 20 16" fill="none" xmlns="http://www.w3.org/2000/svg">
<path d="M16.7201 2.81527H15.4913L15.1841 1.87685C14.9849 1.32622 14.6155 0.849759 14.1271 0.513485C13.6386 0.177211 13.0552 -0.00223052 12.4577 2.09301e-05H7.54264C6.93934 0.00112424 6.35163 0.187407 5.86245 0.532577C5.37328 0.877747 5.00734 1.36437 4.8163 1.92377L4.50911 2.86219H3.28033C2.51652 2.86219 1.784 3.15879 1.24391 3.68675C0.703812 4.21471 0.400391 4.93078 0.400391 5.67743V13.1848C0.400391 13.9314 0.703812 14.6475 1.24391 15.1754C1.784 15.7034 2.51652 16 3.28033 16H16.7201C17.4839 16 18.2164 15.7034 18.7565 15.1754C19.2966 14.6475 19.6 13.9314 19.6 13.1848V5.67743C19.6064 5.3038 19.5366 4.93267 19.3947 4.58567C19.2528 4.23868 19.0417 3.92276 18.7736 3.65635C18.5056 3.38994 18.1859 3.17837 17.8334 3.03396C17.4808 2.88956 17.1023 2.81521 16.7201 2.81527ZM17.68 13.1378C17.68 13.3867 17.5789 13.6254 17.3989 13.8014C17.2188 13.9774 16.9747 14.0762 16.7201 14.0762H3.28033C3.02573 14.0762 2.78155 13.9774 2.60152 13.8014C2.42149 13.6254 2.32035 13.3867 2.32035 13.1378V5.63051C2.32035 5.38163 2.42149 5.14294 2.60152 4.96695C2.78155 4.79097 3.02573 4.6921 3.28033 4.6921H5.20029C5.40963 4.70278 5.61679 4.64618 5.79014 4.53096C5.96348 4.41573 6.09348 4.24821 6.16027 4.05398L6.67866 2.51497C6.74306 2.32858 6.86576 2.1667 7.02941 2.05219C7.19306 1.93768 7.38939 1.87634 7.59064 1.87685H12.5057C12.707 1.87634 12.9033 1.93768 13.067 2.05219C13.2306 2.1667 13.3533 2.32858 13.4177 2.51497L13.9361 4.05398C13.9977 4.23297 14.1131 4.38964 14.2673 4.50349C14.4214 4.61733 14.6071 4.68307 14.8001 4.6921H16.7201C16.9747 4.6921 17.2188 4.79097 17.3989 4.96695C17.5789 5.14294 17.68 5.38163 17.68 5.63051V13.1378ZM10.0002 4.6921C9.24073 4.6921 8.49832 4.91225 7.86685 5.3247C7.23537 5.73716 6.7432 6.3234 6.45257 7.00929C6.16193 7.69519 6.08589 8.44992 6.23405 9.17806C6.38222 9.9062 6.74793 10.575 7.28496 11.1C7.82198 11.625 8.50619 11.9825 9.25106 12.1273C9.99593 12.2721 10.768 12.1978 11.4697 11.9137C12.1713 11.6296 12.771 11.1485 13.193 10.5312C13.6149 9.91389 13.8401 9.18816 13.8401 8.44576C13.8401 7.45022 13.4355 6.49547 12.7154 5.79152C11.9953 5.08757 11.0186 4.6921 10.0002 4.6921ZM10.0002 10.3226C9.62046 10.3226 9.24925 10.2125 8.93352 10.0063C8.61778 9.80006 8.3717 9.50694 8.22638 9.16399C8.08106 8.82104 8.04304 8.44368 8.11712 8.07961C8.1912 7.71554 8.37406 7.38112 8.64258 7.11864C8.91109 6.85616 9.25319 6.67741 9.62563 6.60499C9.99806 6.53257 10.3841 6.56974 10.7349 6.71179C11.0858 6.85385 11.3856 7.0944 11.5966 7.40305C11.8075 7.71169 11.9202 8.07456 11.9202 8.44576C11.9202 8.94352 11.7179 9.4209 11.3578 9.77288C10.9977 10.1249 10.5094 10.3226 10.0002 10.3226Z" fill="#33363F"/>
</svg>
