<svg width="20" height="20" viewBox="0 0 20 20" fill="none" xmlns="http://www.w3.org/2000/svg">
<path fill-rule="evenodd" clip-rule="evenodd" d="M15.8589 5.15279C12.6231 2.12346 7.37693 2.12346 4.14114 5.15279C0.905339 8.1821 0.905339 13.0937 4.14114 16.123C7.37693 19.1523 12.6231 19.1523 15.8589 16.123C18.0268 14.0934 18.7434 11.2186 18.0045 8.62837C17.8824 8.20018 18.1542 7.76043 18.6115 7.64606C19.0689 7.53168 19.5386 7.78611 19.6608 8.2143C20.5511 11.3353 19.6892 14.8068 17.0712 17.2578C13.1659 20.9139 6.8342 20.9139 2.92895 17.2578C-0.976316 13.6017 -0.976316 7.67398 2.92895 4.01795C6.8342 0.361857 13.1659 0.361857 17.0712 4.01795L17.8793 4.77451C18.214 5.08789 18.214 5.59598 17.8793 5.90936C17.5445 6.22273 17.0018 6.22273 16.6671 5.90936L15.8589 5.15279Z" fill="black"/>
<path fill-rule="evenodd" clip-rule="evenodd" d="M17.2743 0C17.7477 0 18.1315 0.359276 18.1315 0.802457V5.34184C18.1315 5.78503 17.7477 6.14429 17.2743 6.14429H12.4255C11.9521 6.14429 11.5684 5.78502 11.5684 5.34184C11.5684 4.89866 11.9521 4.53938 12.4255 4.53938H16.4172V0.802457C16.4172 0.359276 16.8008 0 17.2743 0Z" fill="black"/>
</svg>
